<svg width="32" height="32" viewBox="0 0 32 32" fill="none" xmlns="http://www.w3.org/2000/svg">
  <!-- Gradient background -->
  <defs>
    <linearGradient id="grad" x1="0%" y1="0%" x2="100%" y2="100%">
      <stop offset="0%" style="stop-color:#2563eb;stop-opacity:1" />
      <stop offset="100%" style="stop-color:#4f46e5;stop-opacity:1" />
    </linearGradient>
  </defs>

  <!-- Background circle -->
  <circle cx="16" cy="16" r="16" fill="url(#grad)"/>

  <!-- Book icon -->
  <path d="M8 6h12a2 2 0 0 1 2 2v16a2 2 0 0 1-2 2H8a2 2 0 0 1-2-2V8a2 2 0 0 1 2-2z" fill="white" opacity="0.2"/>
  <path d="M10 9h8M10 13h8M10 17h6" stroke="white" stroke-width="2" stroke-linecap="round"/>

  <!-- Graduation cap accent -->
  <path d="M23 10l-7 3-7-3 7-3 7 3z" fill="white"/>
  <path d="M23 10v4" stroke="white" stroke-width="1.5" stroke-linecap="round"/>
</svg>
